<?xml version="1.0" standalone="no"?>
<!DOCTYPE svg PUBLIC "-//W3C//DTD SVG 20010904//EN"
 "http://www.w3.org/TR/2001/REC-SVG-20010904/DTD/svg10.dtd">
<svg version="1.0" xmlns="http://www.w3.org/2000/svg"
 width="900.000000pt" height="300.000000pt" viewBox="0 0 900.000000 300.000000"
 preserveAspectRatio="xMidYMid meet">
<metadata>
Created by potrace 1.16, written by Peter Selinger 2001-2019
</metadata>
<g transform="translate(0.000000,300.000000) scale(0.100000,-0.100000)"
fill="#000000" stroke="none">
<path d="M1868 2739 c-171 -18 -308 -87 -443 -223 -102 -103 -158 -196 -197
-332 -23 -79 -23 -80 -23 -749 l0 -670 60 0 60 0 5 397 5 397 45 -57 c53 -67
140 -138 217 -180 l57 -30 23 50 c13 27 23 53 23 57 0 4 -15 14 -32 23 -145
69 -284 246 -323 410 -15 65 -19 233 -6 278 7 23 8 23 15 -12 6 -31 23 -52 98
-118 50 -44 96 -80 103 -80 24 0 151 98 179 138 40 59 44 105 12 180 -40 94
-36 212 10 338 14 39 17 42 71 53 290 58 577 -86 704 -354 16 -33 29 -65 29
-70 0 -6 -19 -17 -42 -25 -58 -21 -84 -59 -81 -120 2 -43 -1 -52 -28 -74 -47
-40 -110 -37 -155 8 -19 19 -34 43 -34 55 0 19 -6 21 -50 21 -50 0 -50 0 -44
-27 14 -56 26 -79 62 -116 79 -82 203 -84 289 -4 30 27 54 41 78 43 41 4 41 1
21 -96 -8 -36 -13 -66 -12 -67 0 0 27 -10 58 -21 l57 -20 17 75 c25 111 16
301 -19 408 -33 101 -86 190 -161 272 -169 185 -393 268 -648 242z"/>
<path d="M3895 1977 c-114 -30 -218 -114 -269 -218 -41 -84 -47 -154 -44 -509
l3 -325 55 0 55 0 3 183 2 183 32 -26 c158 -133 397 -120 543 29 197 202 143
528 -108 651 -85 41 -188 53 -272 32z m220 -134 c55 -29 110 -88 136 -148 28
-61 31 -171 7 -227 -22 -49 -93 -125 -143 -151 -56 -30 -192 -31 -250 -2 -176
87 -215 325 -77 469 20 21 60 49 87 63 43 20 61 23 125 20 50 -2 88 -11 115
-24z"/>
<path d="M4917 1970 c-100 -39 -200 -139 -237 -239 -43 -112 -33 -246 26 -346
28 -49 137 -155 159 -155 7 0 15 -5 17 -10 3 -11 48 -23 47 -12 -3 20 3 25 12
12 9 -13 10 -13 6 0 -2 8 -8 15 -13 15 -5 0 -18 6 -29 14 -15 9 -16 11 -2 7 9
-3 17 -1 17 5 0 6 3 8 8 6 4 -3 8 9 8 25 l1 31 -13 -24 -14 -24 5 25 c4 20 -2
30 -35 52 -46 32 -89 96 -97 144 l-6 34 91 0 c81 0 92 2 102 20 14 25 5 40
-23 41 -16 0 -18 2 -7 7 8 4 16 17 17 30 3 21 0 22 -87 22 -103 0 -103 0 -65
77 29 57 72 100 128 126 20 10 35 22 32 28 -4 5 -1 9 4 9 6 0 11 -5 11 -12 0
-6 3 -8 7 -4 4 4 6 24 4 44 -2 30 0 35 10 25 16 -16 39 -17 39 -2 0 5 -4 7
-10 4 -5 -3 -10 -1 -10 4 0 6 -11 11 -25 11 -14 0 -25 4 -25 10 0 5 7 7 15 4
8 -4 15 -1 15 5 0 16 -28 13 -83 -9z"/>
</g>
</svg>
